<?xml version="1.0" encoding="UTF-8"?>
<svg width="700pt" height="700pt" version="1.1" viewBox="0 0 700 700" xmlns="http://www.w3.org/2000/svg" xmlns:xlink="http://www.w3.org/1999/xlink">
 <defs>
  <symbol id="t" overflow="visible">
   <path d="m18.766-1.125c-0.96875 0.5-1.9805 0.875-3.0312 1.125-1.043 0.25781-2.1367 0.39062-3.2812 0.39062-3.3984 0-6.0898-0.94531-8.0781-2.8438-1.9922-1.9062-2.9844-4.4844-2.9844-7.7344 0-3.2578 0.99219-5.8359 2.9844-7.7344 1.9883-1.9062 4.6797-2.8594 8.0781-2.8594 1.1445 0 2.2383 0.13281 3.2812 0.39062 1.0508 0.25 2.0625 0.625 3.0312 1.125v4.2188c-0.98047-0.65625-1.9453-1.1406-2.8906-1.4531-0.94922-0.3125-1.9492-0.46875-3-0.46875-1.875 0-3.3516 0.60547-4.4219 1.8125-1.0742 1.1992-1.6094 2.8555-1.6094 4.9688 0 2.1055 0.53516 3.7617 1.6094 4.9688 1.0703 1.1992 2.5469 1.7969 4.4219 1.7969 1.0508 0 2.0508-0.14844 3-0.45312 0.94531-0.3125 1.9102-0.80078 2.8906-1.4688z"/>
  </symbol>
  <symbol id="c" overflow="visible">
   <path d="m13.734-11.141c-0.4375-0.19531-0.87109-0.34375-1.2969-0.4375-0.41797-0.10156-0.83984-0.15625-1.2656-0.15625-1.2617 0-2.2305 0.40625-2.9062 1.2188-0.67969 0.80469-1.0156 1.9531-1.0156 3.4531v7.0625h-4.8906v-15.312h4.8906v2.5156c0.625-1 1.3438-1.7266 2.1562-2.1875 0.82031-0.46875 1.8008-0.70312 2.9375-0.70312 0.16406 0 0.34375 0.011719 0.53125 0.03125 0.19531 0.011719 0.47656 0.039062 0.84375 0.078125z"/>
  </symbol>
  <symbol id="a" overflow="visible">
   <path d="m17.641-7.7031v1.4062h-11.453c0.125 1.1484 0.53906 2.0078 1.25 2.5781 0.70703 0.57422 1.7031 0.85938 2.9844 0.85938 1.0312 0 2.082-0.14844 3.1562-0.45312 1.082-0.3125 2.1914-0.77344 3.3281-1.3906v3.7656c-1.1562 0.4375-2.3125 0.76562-3.4688 0.98438-1.1562 0.22656-2.3125 0.34375-3.4688 0.34375-2.7734 0-4.9297-0.70312-6.4688-2.1094-1.5312-1.4062-2.2969-3.3789-2.2969-5.9219 0-2.5 0.75391-4.4609 2.2656-5.8906 1.5078-1.4375 3.582-2.1562 6.2188-2.1562 2.4062 0 4.332 0.73047 5.7812 2.1875 1.4453 1.4492 2.1719 3.3828 2.1719 5.7969zm-5.0312-1.625c0-0.92578-0.27344-1.6719-0.8125-2.2344-0.54297-0.57031-1.25-0.85938-2.125-0.85938-0.94922 0-1.7188 0.26562-2.3125 0.79688s-0.96484 1.2969-1.1094 2.2969z"/>
  </symbol>
  <symbol id="e" overflow="visible">
   <path d="m9.2188-6.8906c-1.0234 0-1.793 0.17188-2.3125 0.51562-0.51172 0.34375-0.76562 0.85547-0.76562 1.5312 0 0.625 0.20703 1.1172 0.625 1.4688 0.41406 0.34375 0.98828 0.51562 1.7188 0.51562 0.92578 0 1.7031-0.32812 2.3281-0.98438 0.63281-0.66406 0.95312-1.4922 0.95312-2.4844v-0.5625zm7.4688-1.8438v8.7344h-4.9219v-2.2656c-0.65625 0.92969-1.3984 1.6055-2.2188 2.0312-0.82422 0.41406-1.8242 0.625-3 0.625-1.5859 0-2.8711-0.45703-3.8594-1.375-0.99219-0.92578-1.4844-2.1289-1.4844-3.6094 0-1.7891 0.61328-3.1016 1.8438-3.9375 1.2383-0.84375 3.1797-1.2656 5.8281-1.2656h2.8906v-0.39062c0-0.76953-0.30859-1.332-0.92188-1.6875-0.61719-0.36328-1.5703-0.54688-2.8594-0.54688-1.0547 0-2.0312 0.10547-2.9375 0.3125-0.89844 0.21094-1.7305 0.52344-2.5 0.9375v-3.7344c1.0391-0.25 2.0859-0.44141 3.1406-0.57812 1.0625-0.13281 2.125-0.20312 3.1875-0.20312 2.7578 0 4.75 0.54688 5.9688 1.6406 1.2266 1.0859 1.8438 2.8555 1.8438 5.3125z"/>
  </symbol>
  <symbol id="b" overflow="visible">
   <path d="m7.7031-19.656v4.3438h5.0469v3.5h-5.0469v6.5c0 0.71094 0.14062 1.1875 0.42188 1.4375s0.83594 0.375 1.6719 0.375h2.5156v3.5h-4.1875c-1.9375 0-3.3125-0.39844-4.125-1.2031-0.80469-0.8125-1.2031-2.1797-1.2031-4.1094v-6.5h-2.4219v-3.5h2.4219v-4.3438z"/>
  </symbol>
  <symbol id="k" overflow="visible">
   <path d="m12.766-13.078v-8.2031h4.9219v21.281h-4.9219v-2.2188c-0.66797 0.90625-1.4062 1.5703-2.2188 1.9844s-1.7578 0.625-2.8281 0.625c-1.8867 0-3.4336-0.75-4.6406-2.25-1.2109-1.5-1.8125-3.4258-1.8125-5.7812 0-2.3633 0.60156-4.2969 1.8125-5.7969 1.207-1.5 2.7539-2.25 4.6406-2.25 1.0625 0 2 0.21484 2.8125 0.64062 0.82031 0.42969 1.5664 1.0859 2.2344 1.9688zm-3.2188 9.9219c1.0391 0 1.8359-0.37891 2.3906-1.1406 0.55078-0.76953 0.82812-1.8828 0.82812-3.3438 0-1.457-0.27734-2.5664-0.82812-3.3281-0.55469-0.76953-1.3516-1.1562-2.3906-1.1562-1.043 0-1.8398 0.38672-2.3906 1.1562-0.55469 0.76172-0.82812 1.8711-0.82812 3.3281 0 1.4609 0.27344 2.5742 0.82812 3.3438 0.55078 0.76172 1.3477 1.1406 2.3906 1.1406z"/>
  </symbol>
  <symbol id="j" overflow="visible">
   <path d="m10.5-3.1562c1.0508 0 1.8516-0.37891 2.4062-1.1406 0.55078-0.76953 0.82812-1.8828 0.82812-3.3438 0-1.457-0.27734-2.5664-0.82812-3.3281-0.55469-0.76953-1.3555-1.1562-2.4062-1.1562-1.0547 0-1.8594 0.38672-2.4219 1.1562-0.55469 0.77344-0.82812 1.8828-0.82812 3.3281 0 1.4492 0.27344 2.5586 0.82812 3.3281 0.5625 0.77344 1.3672 1.1562 2.4219 1.1562zm-3.25-9.9219c0.67578-0.88281 1.4219-1.5391 2.2344-1.9688 0.82031-0.42578 1.7656-0.64062 2.8281-0.64062 1.8945 0 3.4453 0.75 4.6562 2.25 1.207 1.5 1.8125 3.4336 1.8125 5.7969 0 2.3555-0.60547 4.2812-1.8125 5.7812-1.2109 1.5-2.7617 2.25-4.6562 2.25-1.0625 0-2.0078-0.21094-2.8281-0.625-0.8125-0.42578-1.5586-1.0859-2.2344-1.9844v2.2188h-4.8906v-21.281h4.8906z"/>
  </symbol>
  <symbol id="i" overflow="visible">
   <path d="m0.34375-15.312h4.8906l4.125 10.391 3.5-10.391h4.8906l-6.4375 16.766c-0.64844 1.6953-1.4023 2.8828-2.2656 3.5625-0.86719 0.6875-2 1.0312-3.4062 1.0312h-2.8438v-3.2188h1.5312c0.83203 0 1.4375-0.13672 1.8125-0.40625 0.38281-0.26172 0.67969-0.73047 0.89062-1.4062l0.14062-0.42188z"/>
  </symbol>
  <symbol id="h" overflow="visible">
   <path d="m2.5781-20.406h6.6875l4.6562 10.922 4.6719-10.922h6.6875v20.406h-4.9844v-14.938l-4.7031 11.016h-3.3281l-4.7031-11.016v14.938h-4.9844z"/>
  </symbol>
  <symbol id="g" overflow="visible">
   <path d="m12.422-21.281v3.2188h-2.7031c-0.6875 0-1.1719 0.125-1.4531 0.375-0.27344 0.25-0.40625 0.6875-0.40625 1.3125v1.0625h4.1875v3.5h-4.1875v11.812h-4.8906v-11.812h-2.4375v-3.5h2.4375v-1.0625c0-1.6641 0.46094-2.8984 1.3906-3.7031 0.92578-0.80078 2.3672-1.2031 4.3281-1.2031z"/>
  </symbol>
  <symbol id="s" overflow="visible">
   <path d="m2.3594-15.312h4.8906v15.312h-4.8906zm0-5.9688h4.8906v4h-4.8906z"/>
  </symbol>
  <symbol id="f" overflow="visible">
   <path d="m17.75-9.3281v9.3281h-4.9219v-7.1406c0-1.3203-0.03125-2.2344-0.09375-2.7344s-0.16797-0.86719-0.3125-1.1094c-0.1875-0.3125-0.44922-0.55469-0.78125-0.73438-0.32422-0.17578-0.69531-0.26562-1.1094-0.26562-1.0234 0-1.8242 0.39844-2.4062 1.1875-0.58594 0.78125-0.875 1.8711-0.875 3.2656v7.5312h-4.8906v-15.312h4.8906v2.2344c0.73828-0.88281 1.5195-1.5391 2.3438-1.9688 0.83203-0.42578 1.75-0.64062 2.75-0.64062 1.7695 0 3.1133 0.54688 4.0312 1.6406 0.91406 1.0859 1.375 2.6562 1.375 4.7188z"/>
  </symbol>
  <symbol id="d" overflow="visible">
   <path d="m9.6406-12.188c-1.0859 0-1.9141 0.39062-2.4844 1.1719-0.57422 0.78125-0.85938 1.9062-0.85938 3.375s0.28516 2.5938 0.85938 3.375c0.57031 0.77344 1.3984 1.1562 2.4844 1.1562 1.0625 0 1.875-0.38281 2.4375-1.1562 0.57031-0.78125 0.85938-1.9062 0.85938-3.375s-0.28906-2.5938-0.85938-3.375c-0.5625-0.78125-1.375-1.1719-2.4375-1.1719zm0-3.5c2.6328 0 4.6914 0.71484 6.1719 2.1406 1.4766 1.418 2.2188 3.3867 2.2188 5.9062 0 2.5117-0.74219 4.4805-2.2188 5.9062-1.4805 1.418-3.5391 2.125-6.1719 2.125-2.6484 0-4.7148-0.70703-6.2031-2.125-1.4922-1.4258-2.2344-3.3945-2.2344-5.9062 0-2.5195 0.74219-4.4883 2.2344-5.9062 1.4883-1.4258 3.5547-2.1406 6.2031-2.1406z"/>
  </symbol>
  <symbol id="r" overflow="visible">
   <path d="m16.547-12.766c0.61328-0.94531 1.3477-1.6719 2.2031-2.1719 0.85156-0.5 1.7891-0.75 2.8125-0.75 1.7578 0 3.0977 0.54688 4.0156 1.6406 0.92578 1.0859 1.3906 2.6562 1.3906 4.7188v9.3281h-4.9219v-7.9844-0.35938c0.007813-0.13281 0.015625-0.32031 0.015625-0.5625 0-1.082-0.16406-1.8633-0.48438-2.3438-0.3125-0.48828-0.82422-0.73438-1.5312-0.73438-0.92969 0-1.6484 0.38672-2.1562 1.1562-0.51172 0.76172-0.77344 1.8672-0.78125 3.3125v7.5156h-4.9219v-7.9844c0-1.6953-0.14844-2.7852-0.4375-3.2656-0.29297-0.48828-0.8125-0.73438-1.5625-0.73438-0.9375 0-1.6641 0.38672-2.1719 1.1562-0.51172 0.76172-0.76562 1.8594-0.76562 3.2969v7.5312h-4.9219v-15.312h4.9219v2.2344c0.60156-0.86328 1.2891-1.5156 2.0625-1.9531 0.78125-0.4375 1.6406-0.65625 2.5781-0.65625 1.0625 0 2 0.25781 2.8125 0.76562 0.8125 0.51172 1.4258 1.2305 1.8438 2.1562z"/>
  </symbol>
  <symbol id="q" overflow="visible">
   <path d="m17.75-9.3281v9.3281h-4.9219v-7.1094c0-1.3438-0.03125-2.2656-0.09375-2.7656s-0.16797-0.86719-0.3125-1.1094c-0.1875-0.3125-0.44922-0.55469-0.78125-0.73438-0.32422-0.17578-0.69531-0.26562-1.1094-0.26562-1.0234 0-1.8242 0.39844-2.4062 1.1875-0.58594 0.78125-0.875 1.8711-0.875 3.2656v7.5312h-4.8906v-21.281h4.8906v8.2031c0.73828-0.88281 1.5195-1.5391 2.3438-1.9688 0.83203-0.42578 1.75-0.64062 2.75-0.64062 1.7695 0 3.1133 0.54688 4.0312 1.6406 0.91406 1.0859 1.375 2.6562 1.375 4.7188z"/>
  </symbol>
  <symbol id="p" overflow="visible">
   <path d="m2.5781-20.406h5.875l7.4219 14v-14h4.9844v20.406h-5.875l-7.4219-14v14h-4.9844z"/>
  </symbol>
  <symbol id="o" overflow="visible">
   <path d="m2.1875-5.9688v-9.3438h4.9219v1.5312c0 0.83594-0.007813 1.875-0.015625 3.125-0.011719 1.25-0.015625 2.0859-0.015625 2.5 0 1.2422 0.03125 2.1328 0.09375 2.6719 0.070313 0.54297 0.17969 0.93359 0.32812 1.1719 0.20703 0.32422 0.47266 0.57422 0.79688 0.75 0.32031 0.16797 0.69141 0.25 1.1094 0.25 1.0195 0 1.8203-0.39062 2.4062-1.1719 0.58203-0.78125 0.875-1.8672 0.875-3.2656v-7.5625h4.8906v15.312h-4.8906v-2.2188c-0.74219 0.89844-1.5234 1.5586-2.3438 1.9844-0.82422 0.41406-1.7344 0.625-2.7344 0.625-1.7617 0-3.1055-0.53906-4.0312-1.625-0.92969-1.082-1.3906-2.6602-1.3906-4.7344z"/>
  </symbol>
  <symbol id="n" overflow="visible">
   <path d="m2.5781-20.406h8.7344c2.5938 0 4.582 0.57812 5.9688 1.7344 1.3945 1.1484 2.0938 2.7891 2.0938 4.9219 0 2.1367-0.69922 3.7812-2.0938 4.9375-1.3867 1.1562-3.375 1.7344-5.9688 1.7344h-3.4844v7.0781h-5.25zm5.25 3.8125v5.7031h2.9219c1.0195 0 1.8047-0.25 2.3594-0.75 0.5625-0.5 0.84375-1.2031 0.84375-2.1094 0-0.91406-0.28125-1.6172-0.84375-2.1094-0.55469-0.48828-1.3398-0.73438-2.3594-0.73438z"/>
  </symbol>
  <symbol id="m" overflow="visible">
   <path d="m2.3594-15.312h4.8906v15.031c0 2.0508-0.49609 3.6172-1.4844 4.7031-0.98047 1.082-2.4062 1.625-4.2812 1.625h-2.4219v-3.2188h0.85938c0.92578 0 1.5625-0.21094 1.9062-0.625 0.35156-0.41797 0.53125-1.2461 0.53125-2.4844zm0-5.9688h4.8906v4h-4.8906z"/>
  </symbol>
  <symbol id="l" overflow="visible">
   <path d="m14.719-14.828v3.9844c-0.65625-0.45703-1.3242-0.79688-2-1.0156-0.66797-0.21875-1.3594-0.32812-2.0781-0.32812-1.3672 0-2.4336 0.40234-3.2031 1.2031-0.76172 0.79297-1.1406 1.9062-1.1406 3.3438 0 1.4297 0.37891 2.543 1.1406 3.3438 0.76953 0.79297 1.8359 1.1875 3.2031 1.1875 0.75781 0 1.4844-0.10938 2.1719-0.32812 0.6875-0.22656 1.3203-0.56641 1.9062-1.0156v4c-0.76172 0.28125-1.5391 0.48828-2.3281 0.625-0.78125 0.14453-1.5742 0.21875-2.375 0.21875-2.7617 0-4.9219-0.70703-6.4844-2.125-1.5547-1.4141-2.3281-3.3828-2.3281-5.9062 0-2.5312 0.77344-4.5039 2.3281-5.9219 1.5625-1.4141 3.7227-2.125 6.4844-2.125 0.80078 0 1.5938 0.074219 2.375 0.21875 0.78125 0.13672 1.5547 0.35156 2.3281 0.64062z"/>
  </symbol>
 </defs>
 <g>
  <path d="m529.2 96.602h-182.12c-2.3203 0-4.1992 1.8828-4.1992 4.1992v61.617l-30.254 27.684c-1.2734 1.1719-1.707 3.0078-1.0781 4.6211 0.62891 1.6133 2.1836 2.6797 3.9141 2.6797l213.74-0.003906c2.3203 0 4.1992-1.8828 4.1992-4.1992v-92.398c0-2.3203-1.8789-4.1992-4.1992-4.1992zm-4.1992 92.398h-198.72l23.641-21.633c0.86328-0.79688 1.3633-1.9258 1.3633-3.1016v-59.266h173.72z"/>
  <path d="m529.2 210.11h-182.12c-2.3203 0-4.1992 1.8828-4.1992 4.1992v32.918l-16.473 15.074c-2.1445-19.617-6.0117-39.926-9.8398-44.105-29.602-32.297-85.281-24.641-118.55-20.07-12.852 1.793-24.805-1.7109-24.934-1.7539-1.1641-0.33203-2.4023-0.16797-3.418 0.46094-1.0234 0.63281-1.7227 1.6797-1.9258 2.8672-0.21484 1.2539-1.668 12.578 10.73 32.605-2.3672 11.078-13.859 68.371-2.2852 73.945-4.5547 1.9336-7.8164 5.3359-9.0625 9.793-2.0625 7.3828 1.9922 15.328 10.559 20.727 5.0352 3.2031 10.172 2.6211 13.223 2.2656 0.25781-0.027343 0.49609-0.058593 0.72266-0.085937 8.125 11.336 14.754 15.719 21.367 19.523 4.2383 2.4453 9.0352 4.4258 14.289 5.9023v13.453h-10.77c-23.594 0-42.789 19.195-42.789 42.789v38.586c0 2.3203 1.8828 4.1992 4.1992 4.1992h148.45c2.3203 0 4.1992-1.8828 4.1992-4.1992v-38.586c0-23.594-19.195-42.789-42.789-42.789h-10.773v-13.262c5.957-1.5078 11.223-3.5703 15.684-6.1367 6.2227-3.582 11.254-7.8164 19.492-19.48 0.22266 0.027344 0.46484 0.058594 0.71484 0.085937 3.0586 0.35547 8.1992 0.93359 13.207-2.2539 9.1914-5.793 13.531-15.363 10.789-23.82-1.6367-5.0586-5.5273-8.6484-10.68-10.336 0.69531-1.3555 1.0781-2.8867 1.3125-4.2734 0.60156-3.5625 0.6875-9.3438 0.41406-16.137l201.26-0.003906c2.3203 0 4.1992-1.8828 4.1992-4.1992v-63.699c0-2.3203-1.8789-4.2031-4.1992-4.2031zm-352.86-4.3789c5.3281 0.98438 13.781 1.9648 22.82 0.72266 40.895-5.6328 86.602-9.3906 111.18 17.395 3.2031 4.1797 6.9219 27.555 8.6016 47.238 0 0.082031-0.042968 0.16016-0.039062 0.24219l0.51562 6.9883c0.007813 0.11719 0.070313 0.21094 0.085937 0.32422 0.5625 9.4297 0.49219 17.07-0.5625 19.785-3.0117 1.7539-5.0703 3.8398-6.4805 5.8672 0.082031-1.0547 0.13281-2.1211 0.13281-3.1602 0-2.4609-0.75-5.0469-1.6172-8.043-1.3789-4.7461-3.0938-10.652-3.0938-19.328 0-4.2617 0.039062-7.6836 0.070312-10.461 0.09375-8.4766 0.12109-11.332-1.2852-13.941-0.60547-1.1172-1.6836-1.9023-2.9375-2.1328-1.2539-0.24219-2.5391 0.11328-3.5 0.94531-9.9648 8.5859-27.266 13.312-48.727 13.312-24.805 0-46.023-4.7969-54.059-12.219-0.77734-0.71484-1.793-1.1133-2.8477-1.1133h-0.042968c-1.207 0.011719-2.3828 0.5625-3.1719 1.4766-1.3633 1.5859-1.1719 2.9688-0.64453 6.6484 0.55859 3.9766 1.5 10.633 1.5 18.309 0 4.8789-1.6016 11.953-2.8867 17.637-0.94531 4.1875-1.6953 7.4922-1.8359 9.7891-0.12109 2.0117-0.027343 4.0156 0.1875 5.9023-1.6719-3.4961-4.125-7.25-7.4062-8.9375-3.0469-6.7578 2.1289-48.738 6.7031-66.402 0.29688-1.1328 0.10547-2.3359-0.52344-3.3203-7.0117-10.949-9.375-18.918-10.141-23.523zm93.871 184.46 2.2969 16.352-7.7656-4.4648c-0.003907 0-0.003907-0.003907-0.003907-0.003907l-5.0352-2.8945zm-11.242 18.262 6.6055 28.273-13.125 5.4688-13.129-5.4688 6.6055-28.27 6.5234-3.7461 3.1719 1.8203zm-16.426-7.7461-2.3828 1.3672-7.7734 4.4648 2.2969-16.355 10.516 8.9961zm79.625 19.898v34.387h-140.04v-34.387c0-18.961 15.426-34.387 34.387-34.387h10.242l-3.8867 27.66c-0.21875 1.5898 0.48047 3.168 1.8086 4.0625 0.70703 0.48047 1.5312 0.72266 2.3516 0.72266 0.72266 0 1.4453-0.1875 2.0938-0.55859l6.832-3.9258-5.6289 24.102c-0.46484 2 0.57812 4.0469 2.4766 4.8359l18.031 7.5078c0.51562 0.21484 1.0664 0.32422 1.6133 0.32422 0.54688 0 1.0977-0.10938 1.6133-0.32422l18.023-7.5078c1.8984-0.78906 2.9414-2.832 2.4766-4.8359l-5.6328-24.102 6.8359 3.9258c0.65234 0.37109 1.3711 0.55859 2.0938 0.55859 0.82031 0 1.6445-0.24219 2.3516-0.72266 1.3281-0.89844 2.0273-2.4727 1.8086-4.0625l-3.8867-27.66h9.6484c18.965 0 34.391 15.426 34.391 34.387zm6.7383-105.07c1.2734 3.9492-0.47656 9.8438-7.2891 14.137-2.5273 1.6094-5.3008 1.2969-7.7656 1.0078-2.3906-0.27344-5.6875-0.65625-7.6523 2.1602-7.9297 11.426-12.184 15.121-17.695 18.293-4.418 2.543-9.8438 4.5234-16.137 5.8828-3.4805 0.035156-3.7344 0.97656-3.7539 23.48l-16.164 13.832-16.77-14.348-0.007813-19.086-0.14844-3.168-3.0898-0.72266c-5.7383-1.3398-10.859-3.2969-15.246-5.8281-6.2344-3.5859-12.016-7.4414-19.59-18.348-1.9531-2.8047-5.2461-2.4219-7.6445-2.1562-2.4492 0.27344-5.2383 0.60156-7.7812-1.0156-5.3164-3.3477-7.9844-7.707-6.9609-11.371 0.63672-2.2852 2.7656-3.9375 5.7539-4.7891 0.44922 1.0898 0.86328 2.2266 1.1992 3.3438 0.41016 1.3906 1.5078 2.4727 2.9023 2.8555l8.3281 2.3008c0.37109 0.10547 0.75 0.15234 1.1211 0.15234 1.1914 0 2.3477-0.50781 3.1562-1.4258 1.0625-1.207 1.3398-2.9141 0.71484-4.3984-0.027344-0.070313-2.8945-7.0977-2.4844-13.82 0.097656-1.6133 0.84766-4.9258 1.6406-8.4453 1.3789-6.0938 3.0938-13.672 3.0938-19.492 0-5.207-0.41016-10.023-0.84766-13.859 11.727 5.7578 30.395 9.1562 51.719 9.1562 23.844 0 38.84-5.2461 48.082-10.906 0 1.2734-0.015625 2.7031-0.03125 4.2344-0.03125 2.793-0.070313 6.25-0.070313 10.551 0 9.8672 1.9805 16.691 3.4297 21.672 0.6875 2.3789 1.2852 4.4336 1.2852 5.6992 0 5.5117-1.7617 12.43-1.7812 12.496-0.36719 1.4258 0.042969 2.9414 1.0781 3.9922 1.0352 1.0547 2.5664 1.4805 3.9688 1.1445l7.1367-1.7109c1.8281-0.4375 3.1445-2.1289 3.2227-4.0039 0.003906-0.10156 0.097656-1.4062 0.99609-3.0508 5.0859-0.050782 8.8945 1.8984 10.082 5.5547zm196.09-41.73h-197.48l-0.082031-1.0664 22.477-20.566c0.87109-0.79688 1.3672-1.9258 1.3672-3.1016v-30.566h173.72z"/>
  <path d="m376.6 136.85h126c2.3203 0 4.1992-1.8828 4.1992-4.1992 0-2.3203-1.8828-4.1992-4.1992-4.1992h-126c-2.3203 0-4.1992 1.8828-4.1992 4.1992-0.003906 2.3164 1.8789 4.1992 4.1992 4.1992z"/>
  <path d="m502.6 157.15h-9.4492c-2.3203 0-4.1992 1.8828-4.1992 4.1992 0 2.3203 1.8828 4.1992 4.1992 4.1992l9.4492 0.003906c2.3203 0 4.1992-1.8828 4.1992-4.1992 0-2.3203-1.8828-4.2031-4.1992-4.2031z"/>
  <path d="m376.6 165.55h93.105c2.3203 0 4.1992-1.8828 4.1992-4.1992 0-2.3203-1.8828-4.1992-4.1992-4.1992l-93.105-0.003906c-2.3203 0-4.1992 1.8828-4.1992 4.1992-0.003906 2.3203 1.8789 4.2031 4.1992 4.2031z"/>
  <path d="m376.6 236.02h126c2.3203 0 4.1992-1.8828 4.1992-4.1992 0-2.3203-1.8828-4.1992-4.1992-4.1992h-126c-2.3203 0-4.1992 1.8828-4.1992 4.1992-0.003906 2.3164 1.8789 4.1992 4.1992 4.1992z"/>
  <path d="m502.6 256.32h-9.4492c-2.3203 0-4.1992 1.8828-4.1992 4.1992 0 2.3203 1.8828 4.1992 4.1992 4.1992h9.4492c2.3203 0 4.1992-1.8828 4.1992-4.1992 0-2.3203-1.8828-4.1992-4.1992-4.1992z"/>
  <path d="m376.6 264.71h93.105c2.3203 0 4.1992-1.8828 4.1992-4.1992 0-2.3203-1.8828-4.1992-4.1992-4.1992h-93.105c-2.3203 0-4.1992 1.8828-4.1992 4.1992-0.003906 2.3164 1.8789 4.1992 4.1992 4.1992z"/>
 </g>
</svg>
